# xmcd
#
# Track frame offsets:
#	150
#	30152
#	53070
#	74978
#	102775
#	132733
#	158297
#	180127
#	206759
#
# Disc length: 3058 seconds
#
# Revision: 23
# Processed by: cddbd v1.5.2PL0 Copyright (c) Steve Scherf et al.
# Submitted via: Jack! The Knife 20 Magnifico
#
DISCID=720bf009
DTITLE=Stratovarius - Elements Pt. 2
DYEAR=2003
DGENRE=Metal
TTITLE0=Alpha and Omega
TTITLE1=I Walk To My Own Song
TTITLE2=I'm Still Alive
TTITLE3=Season Of Faith's Perfection
TTITLE4=Awaken The Giant
TTITLE5=Know The Difference
TTITLE6=Luminous
TTITLE7=Dreamweaver
TTITLE8=Liberty
EXTD=Timo Tolkki
EXTT0=Timo Tolkki
EXTT1=Timo Tolkki
EXTT2=Timo Tolkki
EXTT3=Timo Tolkki
EXTT4=Timo Tolkki
EXTT5=Timo Tolkki
EXTT6=Timo Tolkki
EXTT7=Timo Tolkki
EXTT8=Timo Tolkki
PLAYORDER=
